<svg xmlns="http://www.w3.org/2000/svg" viewBox="0 0 400 200" preserveAspectRatio="none">
    <defs>
        <filter id="neon-blur" x="-50%" y="-50%" width="200%" height="200%">
            <feGaussianBlur stdDeviation="3" result="blur"/>
            <feComposite in="SourceGraphic" in2="blur" operator="over"/>
        </filter>
        <linearGradient id="neon-gradient" x1="0%" y1="0%" x2="0%" y2="100%">
            <stop offset="0%" stop-color="#8b5cf6"/>
            <stop offset="50%" stop-color="#ec4899"/>
            <stop offset="100%" stop-color="#3b82f6"/>
        </linearGradient>
        <linearGradient id="neon-gradient-2" x1="0%" y1="0%" x2="100%" y2="0%">
            <stop offset="0%" stop-color="#3b82f6"/>
            <stop offset="50%" stop-color="#8b5cf6"/>
            <stop offset="100%" stop-color="#ec4899"/>
        </linearGradient>
        <pattern id="grid-pattern" x="0" y="0" width="40" height="40" patternUnits="userSpaceOnUse">
            <path d="M 40 0 L 0 0 0 40" fill="none" stroke="#8b5cf6" stroke-width="0.5"/>
        </pattern>
    </defs>
    
    <!-- 背景网格 -->
    <rect width="100%" height="100%" fill="url(#grid-pattern)" opacity="0.15"/>
    
    <!-- 左上角装饰 -->
    <path d="M 0,0 L 100,0 L 100,5 L 5,5 L 5,100 L 0,100 Z" fill="none" stroke="url(#neon-gradient)" stroke-width="2" filter="url(#neon-blur)"/>
    
    <!-- 右上角装饰 -->
    <path d="M 300,0 L 400,0 L 400,100 L 395,100 L 395,5 L 300,5 Z" fill="none" stroke="url(#neon-gradient)" stroke-width="2" filter="url(#neon-blur)"/>
    
    <!-- 左下角装饰 -->
    <path d="M 0,100 L 5,100 L 5,195 L 100,195 L 100,200 L 0,200 Z" fill="none" stroke="url(#neon-gradient)" stroke-width="2" filter="url(#neon-blur)"/>
    
    <!-- 右下角装饰 -->
    <path d="M 300,195 L 395,195 L 395,100 L 400,100 L 400,200 L 300,200 Z" fill="none" stroke="url(#neon-gradient)" stroke-width="2" filter="url(#neon-blur)"/>
    
    <!-- 四边霓虹装饰线 -->
    <rect x="10" y="10" width="380" height="180" rx="5" ry="5" fill="none" stroke="url(#neon-gradient-2)" stroke-width="1" filter="url(#neon-blur)" stroke-dasharray="30 15" stroke-linecap="round"/>
    
    <!-- 霓虹角标装饰 -->
    <path d="M 0,0 L 20,20" stroke="#ec4899" stroke-width="2" filter="url(#neon-blur)"/>
    <path d="M 400,0 L 380,20" stroke="#3b82f6" stroke-width="2" filter="url(#neon-blur)"/>
    <path d="M 0,200 L 20,180" stroke="#3b82f6" stroke-width="2" filter="url(#neon-blur)"/>
    <path d="M 400,200 L 380,180" stroke="#ec4899" stroke-width="2" filter="url(#neon-blur)"/>
    
    <!-- 中间装饰线条 -->
    <line x1="0" y1="100" x2="400" y2="100" stroke="#8b5cf6" stroke-width="0.5" stroke-dasharray="5 3"/>
    <line x1="200" y1="0" x2="200" y2="200" stroke="#8b5cf6" stroke-width="0.5" stroke-dasharray="5 3"/>
</svg>